<svg xmlns="http://www.w3.org/2000/svg"  viewBox="0 0 24 24" width="48px" height="48px"><polygon fill="#1677C7" points="0,12 0,24 24,24 24,0 0,0 0,12"/><polygon fill="#1368AD" points="12,0 0,0 0,24 12,24 12,0"/><path fill="#FFF" d="M14.563,19.626c0.108-0.062,0.511-0.294,0.892-0.515l0.69-0.4l0.145,0.214	c0.203,0.308,0.643,0.731,0.91,0.873c0.766,0.404,1.817,0.348,2.335-0.118c0.193-0.164,0.314-0.406,0.314-0.675l-0.001-0.047v0.002	c0-0.278-0.035-0.4-0.18-0.609c-0.186-0.267-0.567-0.49-1.649-0.961c-1.237-0.533-1.771-0.863-2.258-1.389	c-0.294-0.334-0.521-0.737-0.653-1.178l-0.006-0.022c-0.091-0.339-0.114-1.19-0.042-1.531c0.255-1.196,1.158-2.029,2.461-2.277	c0.423-0.08,1.406-0.051,1.821,0.053v0.001c0.61,0.153,1.074,0.423,1.501,0.865c0.221,0.235,0.549,0.666,0.575,0.769	c0.008,0.031-1.036,0.73-1.668,1.123c-0.023,0.014-0.115-0.084-0.217-0.236c-0.31-0.45-0.633-0.644-1.128-0.679	c-0.728-0.05-1.196,0.331-1.193,0.968l-0.001,0.037c0,0.15,0.038,0.293,0.105,0.416l-0.002-0.004	c0.161,0.331,0.458,0.53,1.391,0.933c1.719,0.739,2.454,1.226,2.911,1.92c0.51,0.773,0.625,2.008,0.278,2.926	c-0.38,0.998-1.325,1.676-2.655,1.899c-0.411,0.073-1.387,0.062-1.828-0.017c-0.964-0.172-1.878-0.649-2.442-1.274	c-0.221-0.242-0.652-0.879-0.625-0.924C14.354,19.751,14.453,19.689,14.563,19.626L14.563,19.626z"/><path fill="#FFF" d="M5.259,12.064c0-0.533,0.01-0.979,0.026-0.989c0.011-0.017,1.913-0.025,4.217-0.021l4.195,0.011l0.011,0.98	l0.008,0.983h-3.125v8.876H8.38v-8.876H5.259V12.064L5.259,12.064z"/><path fill="#DEDEDE" d="M21.007,16.488h-4.701c0.392,0.288,0.901,0.55,1.713,0.9c1.083,0.471,1.463,0.695,1.649,0.961	c0.145,0.209,0.18,0.331,0.18,0.609v-0.002l0.001,0.047c0,0.27-0.121,0.511-0.314,0.675c-0.285,0.256-0.731,0.388-1.202,0.388	c-0.386,0-0.788-0.088-1.133-0.27c-0.267-0.141-0.708-0.564-0.91-0.873l-0.145-0.214l-0.69,0.4	c-0.381,0.221-0.784,0.453-0.892,0.515c-0.11,0.063-0.209,0.125-0.22,0.141c-0.027,0.045,0.404,0.682,0.625,0.924	c0.564,0.625,1.478,1.102,2.442,1.274c0.241,0.043,0.641,0.066,1.021,0.066c0.317,0,0.62-0.016,0.807-0.049	c1.33-0.223,2.275-0.901,2.655-1.899c0.347-0.918,0.232-2.153-0.278-2.926C21.456,16.916,21.263,16.699,21.007,16.488L21.007,16.488	z"/><polygon fill="#DEDEDE" points="10.591,16.488 8.38,16.488 8.38,21.905 10.591,21.905 10.591,16.488"/></svg>