<svg xmlns="http://www.w3.org/2000/svg"  viewBox="0 0 24 24" width="96px" height="96px"><path fill="#364548" d="M12.465,9.139h2.452v2.507h1.24c0.573,0,1.161-0.102,1.704-0.286c0.266-0.091,0.566-0.216,0.828-0.375	c-0.346-0.451-0.523-1.022-0.575-1.585c-0.071-0.765,0.084-1.761,0.601-2.36l0.258-0.298L19.28,6.99	c0.773,0.621,1.424,1.49,1.539,2.479c0.931-0.274,2.024-0.209,2.845,0.265L24,9.928l-0.177,0.346	c-0.694,1.355-2.145,1.774-3.564,1.7c-2.123,5.288-6.745,7.791-12.349,7.791c-2.895,0-5.551-1.083-7.064-3.652l-0.025-0.041	l-0.22-0.449c-0.511-1.131-0.681-2.369-0.566-3.607l0.034-0.371h2.097V9.139h2.452V6.687h4.904V4.235h2.943V9.139L12.465,9.139z"/><path fill="#37B1D9" d="M20.409,10.067c0.165-1.278-0.792-2.281-1.385-2.758c-0.683,0.79-0.789,2.861,0.283,3.732	c-0.599,0.532-1.859,1.013-3.15,1.013H0.441c-0.126,1.348,0.111,2.589,0.652,3.651l0.179,0.327c0.113,0.192,0.237,0.377,0.371,0.556	c0.646,0.041,1.241,0.056,1.786,0.043c1.071-0.024,1.945-0.15,2.608-0.38c0.1-0.031,0.205,0.025,0.236,0.124	c0.029,0.095-0.02,0.197-0.113,0.232c-0.088,0.031-0.18,0.059-0.275,0.086c-0.522,0.149-1.081,0.249-1.802,0.294l-0.045,0.006	l-0.08,0.007c-0.284,0.016-0.59,0.019-0.904,0.019c-0.343,0-0.68-0.006-1.057-0.026l-0.01,0.007c1.31,1.472,3.357,2.354,5.923,2.354	c5.431,0,10.038-2.407,12.078-7.813c1.448,0.148,2.838-0.221,3.471-1.456C22.451,9.506,21.155,9.692,20.409,10.067L20.409,10.067z"/><path fill="#2F3C3F" d="M8.575,6.687H4.618v2.452H2.166v2.507H0.069l-0.034,0.371c-0.115,1.238,0.054,2.476,0.566,3.607l0.22,0.449	l0.025,0.041c1.513,2.569,4.169,3.652,7.064,3.652c0.223,0,0.445-0.004,0.665-0.012v-0.409c-0.1,0.004-0.2,0.007-0.3,0.009	c-0.015,0-0.03,0.001-0.045,0.001c-0.001,0-0.003,0-0.005,0c-0.082,0.001-0.165,0.002-0.247,0.003c-0.003,0-0.006,0-0.009,0	c-0.02,0-0.039,0-0.058,0l0,0c-0.307,0-0.606-0.013-0.897-0.037c-2.471-0.197-3.911-1.143-5.105-2.337	c0.399,0.021,0.78,0.032,1.142,0.032c0.313,0,0.611-0.009,0.895-0.024c0.753-0.042,1.402-0.141,1.941-0.295l0,0	c0.095-0.027,0.187-0.055,0.275-0.086c0.093-0.036,0.142-0.137,0.113-0.232c-0.025-0.081-0.1-0.133-0.18-0.133	c-0.019,0-0.038,0.003-0.056,0.009c-0.663,0.229-1.536,0.356-2.608,0.38c-0.125,0.003-0.252,0.004-0.382,0.004	c-0.438,0-0.906-0.016-1.404-0.048c-0.134-0.179-0.258-0.364-0.371-0.556l-0.179-0.327c-0.54-1.062-0.777-2.303-0.652-3.651h8.133	V6.687L8.575,6.687z"/><path fill="#309ABD" d="M7.978,19.356c-0.003,0-0.006,0-0.009,0C7.972,19.356,7.975,19.356,7.978,19.356L7.978,19.356z M8.23,19.353	c-0.002,0-0.003,0-0.005,0C8.226,19.353,8.228,19.353,8.23,19.353L8.23,19.353z M8.575,19.343c-0.1,0.004-0.2,0.007-0.3,0.009	C8.375,19.35,8.475,19.348,8.575,19.343L8.575,19.343L8.575,19.343z M7.013,19.319c0.292,0.025,0.591,0.037,0.897,0.037l0,0l0,0	C7.596,19.354,7.297,19.341,7.013,19.319L7.013,19.319z M8.575,12.054H0.441c-0.126,1.348,0.111,2.589,0.652,3.651l0.179,0.327	c0.113,0.192,0.237,0.377,0.371,0.556c0.498,0.032,0.966,0.048,1.404,0.048c0.13,0,0.258-0.001,0.382-0.004	c1.071-0.024,1.945-0.15,2.608-0.38c0.019-0.006,0.038-0.009,0.056-0.009c0.08,0,0.154,0.052,0.18,0.133	c0.029,0.095-0.02,0.197-0.113,0.232c-0.088,0.031-0.18,0.059-0.275,0.086c0.443,1.022,1.24,1.958,2.69,2.647V12.054L8.575,12.054z"/><path fill="#D3ECEC" d="M8.577,19.343c-1.452-0.689-2.249-1.625-2.692-2.648c-0.539,0.154-1.188,0.253-1.941,0.295	c-0.284,0.016-0.582,0.024-0.895,0.024c-0.361,0-0.742-0.01-1.141-0.032c1.332,1.331,2.97,2.355,6.003,2.374	C8.134,19.356,8.356,19.352,8.577,19.343L8.577,19.343z"/><path fill="#B8CDCD" d="M4.863,16.904c-0.287,0.039-0.593,0.068-0.92,0.087c-0.284,0.016-0.582,0.024-0.895,0.024	c-0.361,0-0.742-0.01-1.141-0.032c0.797,0.797,1.705,1.484,2.956,1.911V16.904L4.863,16.904z"/><path fill="#D3ECEC" d="M7.019,15.119c0.324-0.005,0.589,0.255,0.594,0.578c0.004,0.324-0.255,0.59-0.579,0.594H7.019	c-0.324-0.004-0.583-0.27-0.578-0.594C6.444,15.379,6.701,15.123,7.019,15.119L7.019,15.119z"/><path fill="#364548" d="M7.019,15.285l0.152,0.028l-0.063,0.234l0.148,0.085l0.151-0.089c0.089,0.214-0.013,0.46-0.227,0.548	c-0.214,0.09-0.46-0.012-0.548-0.226c-0.089-0.214,0.013-0.46,0.226-0.549L7.019,15.285L7.019,15.285z"/><path fill="#B8CDCD" d="M7.019,15.119L7.019,15.119c-0.318,0.004-0.575,0.261-0.578,0.578c-0.005,0.324,0.254,0.59,0.578,0.594h0	v-0.166c0,0,0,0-0.001,0c-0.164,0-0.32-0.098-0.387-0.259c-0.089-0.214,0.013-0.46,0.226-0.549l0.161-0.032V15.119L7.019,15.119z"/><path fill="#2F3C3F" d="M7.019,15.285l-0.161,0.032c-0.214,0.089-0.315,0.335-0.226,0.549c0.067,0.161,0.223,0.259,0.387,0.259	c0,0,0,0,0,0L7.019,15.285L7.019,15.285z"/><polygon fill="#23A3C2" points="2.575,9.548 4.7,9.548 4.7,11.673 2.575,11.673 2.575,9.548"/><polygon fill="#23A3C2" points="2.751,9.725 2.919,9.725 2.919,11.496 2.751,11.496 2.751,9.725"/><polygon fill="#23A3C2" points="3.067,9.725 3.241,9.725 3.241,11.496 3.067,11.496 3.067,9.725"/><polygon fill="#23A3C2" points="3.389,9.725 3.563,9.725 3.563,11.496 3.389,11.496 3.389,9.725"/><polygon fill="#23A3C2" points="3.711,9.725 3.885,9.725 3.885,11.496 3.711,11.496 3.711,9.725"/><polygon fill="#23A3C2" points="4.033,9.725 4.207,9.725 4.207,11.496 4.033,11.496 4.033,9.725"/><polygon fill="#23A3C2" points="4.355,9.725 4.522,9.725 4.522,11.496 4.355,11.496 4.355,9.725"/><polygon fill="#23A3C2" points="5.204,7.273 5.372,7.273 5.372,9.044 5.204,9.044 5.204,7.273"/><polygon fill="#23A3C2" points="5.519,7.273 5.693,7.273 5.693,9.044 5.519,9.044 5.519,7.273"/><polygon fill="#23A3C2" points="5.841,7.273 6.015,7.273 6.015,9.044 5.841,9.044 5.841,7.273"/><polygon fill="#23A3C2" points="6.163,7.273 6.337,7.273 6.337,9.044 6.163,9.044 6.163,7.273"/><polygon fill="#23A3C2" points="6.485,7.273 6.66,7.273 6.66,9.044 6.485,9.044 6.485,7.273"/><polygon fill="#23A3C2" points="6.807,7.273 6.974,7.273 6.974,9.044 6.807,9.044 6.807,7.273"/><polygon fill="#1E8EA9" points="3.57,9.548 2.575,9.548 2.575,11.673 3.57,11.673 3.57,9.548"/><path fill="#34BBDE" d="M5.026,9.548h2.125v2.125H5.026V9.548L5.026,9.548z M5.204,9.725h0.168v1.771H5.204V9.725L5.204,9.725z M5.519,9.725h0.174v1.771H5.519V9.725L5.519,9.725z M5.841,9.725h0.174v1.771H5.841V9.725L5.841,9.725z M6.163,9.725h0.174v1.771	H6.163V9.725L6.163,9.725z M6.485,9.725H6.66v1.771H6.485V9.725L6.485,9.725z M6.807,9.725h0.167v1.771H6.807V9.725L6.807,9.725z"/><polygon fill="#23A3C2" points="5.026,7.096 7.152,7.096 7.152,9.221 5.026,9.221 5.026,7.096"/><polygon fill="#2DA3C1" points="6.089,9.548 5.026,9.548 5.026,11.673 6.089,11.673 6.089,9.548"/><polygon fill="#1E8EA9" points="6.089,7.096 5.026,7.096 5.026,9.221 6.089,9.221 6.089,7.096"/><path fill="#23A3C2" d="M7.479,9.548h2.126v2.125H7.479V9.548L7.479,9.548z M7.656,9.725h0.167v1.771H7.656V9.725L7.656,9.725z M7.971,9.725h0.174v1.771H7.971V9.725L7.971,9.725z M8.293,9.725h0.174v1.771H8.293V9.725L8.293,9.725z M8.615,9.725H8.79v1.771	H8.615V9.725L8.615,9.725z M8.937,9.725h0.175v1.771H8.937V9.725L8.937,9.725z M9.259,9.725h0.167v1.771H9.259V9.725L9.259,9.725z"/><polygon fill="#34BBDE" points="7.479,7.096 9.604,7.096 9.604,9.221 7.479,9.221 7.479,7.096"/><polygon fill="#34BBDE" points="7.656,7.273 7.823,7.273 7.823,9.044 7.656,9.044 7.656,7.273"/><polygon fill="#34BBDE" points="7.971,7.273 8.146,7.273 8.146,9.044 7.971,9.044 7.971,7.273"/><polygon fill="#34BBDE" points="8.293,7.273 8.467,7.273 8.467,9.044 8.293,9.044 8.293,7.273"/><polygon fill="#34BBDE" points="8.615,7.273 8.79,7.273 8.79,9.044 8.615,9.044 8.615,7.273"/><polygon fill="#34BBDE" points="8.937,7.273 9.112,7.273 9.112,9.044 8.937,9.044 8.937,7.273"/><polygon fill="#34BBDE" points="9.259,7.273 9.427,7.273 9.427,9.044 9.259,9.044 9.259,7.273"/><polygon fill="#34BBDE" points="10.108,9.725 10.275,9.725 10.275,11.496 10.108,11.496 10.108,9.725"/><polygon fill="#34BBDE" points="10.423,9.725 10.598,9.725 10.598,11.496 10.423,11.496 10.423,9.725"/><polygon fill="#34BBDE" points="10.745,9.725 10.919,9.725 10.919,11.496 10.745,11.496 10.745,9.725"/><polygon fill="#34BBDE" points="11.067,9.725 11.242,9.725 11.242,11.496 11.067,11.496 11.067,9.725"/><polygon fill="#34BBDE" points="11.389,9.725 11.564,9.725 11.564,11.496 11.389,11.496 11.389,9.725"/><polygon fill="#34BBDE" points="11.711,9.725 11.879,9.725 11.879,11.496 11.711,11.496 11.711,9.725"/><polygon fill="#1E8EA9" points="8.575,9.548 7.479,9.548 7.479,11.673 8.575,11.673 8.575,9.548"/><polygon fill="#2DA3C1" points="8.575,7.096 7.479,7.096 7.479,9.221 8.575,9.221 8.575,7.096"/><path fill="#23A3C2" d="M9.931,7.096h2.125v2.125H9.931V7.096L9.931,7.096z M10.108,7.273h0.168v1.771h-0.168V7.273L10.108,7.273z M10.423,7.273h0.174v1.771h-0.174V7.273L10.423,7.273z M10.745,7.273h0.174v1.771h-0.174V7.273L10.745,7.273z M11.067,7.273h0.175	v1.771h-0.175V7.273L11.067,7.273z M11.389,7.273h0.174v1.771h-0.174V7.273L11.389,7.273z M11.711,7.273h0.167v1.771h-0.167V7.273	L11.711,7.273z"/><path fill="#34BBDE" d="M9.931,4.644h2.125v2.125H9.931V4.644L9.931,4.644z M10.108,4.821h0.168v1.771h-0.168V4.821L10.108,4.821z M10.423,4.821h0.174v1.771h-0.174V4.821L10.423,4.821z M10.745,4.821h0.174v1.771h-0.174V4.821L10.745,4.821z M11.067,4.821h0.175	v1.771h-0.175V4.821L11.067,4.821z M11.389,4.821h0.174v1.771h-0.174V4.821L11.389,4.821z M11.711,4.821h0.167v1.771h-0.167V4.821	L11.711,4.821z"/><polygon fill="#34BBDE" points="9.931,9.548 12.056,9.548 12.056,11.673 9.931,11.673 9.931,9.548"/><polygon fill="#1E8EA9" points="10.993,7.096 9.931,7.096 9.931,9.221 10.993,9.221 10.993,7.096"/><polygon fill="#2DA3C1" points="10.993,4.644 9.931,4.644 9.931,6.769 10.993,6.769 10.993,4.644"/><polygon fill="#2DA3C1" points="10.993,9.548 9.931,9.548 9.931,11.673 10.993,11.673 10.993,9.548"/><path fill="#23A3C2" d="M12.383,9.548h2.125v2.125h-2.125V9.548L12.383,9.548z M12.56,9.725h0.168v1.771H12.56L12.56,9.725	L12.56,9.725L12.56,9.725z M12.875,9.725h0.175v1.771h-0.175V9.725L12.875,9.725z M13.197,9.725h0.175v1.771h-0.175V9.725	L13.197,9.725z M13.519,9.725h0.174v1.771h-0.174V9.725L13.519,9.725z M13.841,9.725h0.174v1.771h-0.174V9.725L13.841,9.725z M14.163,9.725h0.168v1.771h-0.168V9.725L14.163,9.725z"/><path fill="#1E8EA9" d="M12.56,9.725L12.56,9.725L12.56,9.725z M13.439,9.548h-1.056v2.125h1.056V9.548L13.439,9.548z"/></svg>