<svg xmlns="http://www.w3.org/2000/svg"  viewBox="0 0 80 80" width="80px" height="80px"><path d="M 12 9 C 10.90625 9 10 9.90625 10 11 L 10 18 L 8 18 L 8 20 L 10 20 L 10 27 C 10 28.09375 10.90625 29 12 29 L 64 29 C 65.09375 29 66 28.09375 66 27 L 66 20 L 67 20 C 67.566406 20 68 20.433594 68 21 L 68 30.449219 C 68 30.910156 67.695313 31.300781 67.25 31.417969 L 37 39.222656 L 37 44 L 34 44 L 34 47 C 32.90625 47 32 47.90625 32 49 L 32 67 C 32 68.09375 32.90625 69 34 69 L 42 69 C 43.09375 69 44 68.09375 44 67 L 44 49 C 44 47.90625 43.09375 47 42 47 L 42 44 L 39 44 L 39 40.777344 L 67.75 33.355469 C 69.070313 33.015625 70 31.8125 70 30.449219 L 70 21 C 70 19.355469 68.644531 18 67 18 L 66 18 L 66 11 C 66 9.90625 65.09375 9 64 9 Z M 12 11 L 64 11 L 64 27 L 12 27 Z M 16 14 C 15.449219 14 15 14.449219 15 15 C 15 15.550781 15.449219 16 16 16 C 16.550781 16 17 15.550781 17 15 C 17 14.449219 16.550781 14 16 14 Z M 20 14 C 19.449219 14 19 14.449219 19 15 C 19 15.550781 19.449219 16 20 16 C 20.550781 16 21 15.550781 21 15 C 21 14.449219 20.550781 14 20 14 Z M 24 14 C 23.449219 14 23 14.449219 23 15 C 23 15.550781 23.449219 16 24 16 C 24.550781 16 25 15.550781 25 15 C 25 14.449219 24.550781 14 24 14 Z M 28 14 C 27.449219 14 27 14.449219 27 15 C 27 15.550781 27.449219 16 28 16 C 28.550781 16 29 15.550781 29 15 C 29 14.449219 28.550781 14 28 14 Z M 32 14 C 31.449219 14 31 14.449219 31 15 C 31 15.550781 31.449219 16 32 16 C 32.550781 16 33 15.550781 33 15 C 33 14.449219 32.550781 14 32 14 Z M 36 14 C 35.449219 14 35 14.449219 35 15 C 35 15.550781 35.449219 16 36 16 C 36.550781 16 37 15.550781 37 15 C 37 14.449219 36.550781 14 36 14 Z M 40 14 C 39.449219 14 39 14.449219 39 15 C 39 15.550781 39.449219 16 40 16 C 40.550781 16 41 15.550781 41 15 C 41 14.449219 40.550781 14 40 14 Z M 44 14 C 43.449219 14 43 14.449219 43 15 C 43 15.550781 43.449219 16 44 16 C 44.550781 16 45 15.550781 45 15 C 45 14.449219 44.550781 14 44 14 Z M 48 14 C 47.449219 14 47 14.449219 47 15 C 47 15.550781 47.449219 16 48 16 C 48.550781 16 49 15.550781 49 15 C 49 14.449219 48.550781 14 48 14 Z M 52 14 C 51.449219 14 51 14.449219 51 15 C 51 15.550781 51.449219 16 52 16 C 52.550781 16 53 15.550781 53 15 C 53 14.449219 52.550781 14 52 14 Z M 56 14 C 55.449219 14 55 14.449219 55 15 C 55 15.550781 55.449219 16 56 16 C 56.550781 16 57 15.550781 57 15 C 57 14.449219 56.550781 14 56 14 Z M 60 14 C 59.449219 14 59 14.449219 59 15 C 59 15.550781 59.449219 16 60 16 C 60.550781 16 61 15.550781 61 15 C 61 14.449219 60.550781 14 60 14 Z M 36 46 L 40 46 L 40 49 L 42 49 L 42 67 L 34 67 L 34 49 L 36 49 Z M 38 47 C 37.449219 47 37 47.449219 37 48 C 37 48.550781 37.449219 49 38 49 C 38.550781 49 39 48.550781 39 48 C 39 47.449219 38.550781 47 38 47 Z"/></svg>